<svg xmlns="http://www.w3.org/2000/svg" viewBox="0 0 50 62.5" x="0px" y="0px"><title></title><g data-name="Layer 44"><path d="M2.5,13.19672A3.32361,3.32361,0,0,1,5.81967,9.87705H44.18033a3.31967,3.31967,0,1,1,0,6.63934H5.81967A3.32361,3.32361,0,0,1,2.5,13.19672Zm41.68033,8.48361H5.81967a3.31967,3.31967,0,0,0,0,6.63934H44.18033a3.31967,3.31967,0,1,0,0-6.63934Zm0,11.80328H5.81967a3.31967,3.31967,0,0,0,0,6.63934H44.18033a3.31967,3.31967,0,0,0,0-6.63934Z"/></g><text x="0" y="65" fill="#000000" font-size="5px" font-weight="bold" font-family="'Helvetica Neue', Helvetica, Arial-Unicode, Arial, Sans-serif"></text><text x="0" y="70" fill="#000000" font-size="5px" font-weight="bold" font-family="'Helvetica Neue', Helvetica, Arial-Unicode, Arial, Sans-serif"></text></svg>